<svg version="1.1" id="Layer_1" xmlns:sketch="http://www.bohemiancoding.com/sketch/ns"
	 xmlns="http://www.w3.org/2000/svg" xmlns:xlink="http://www.w3.org/1999/xlink" x="0px" y="0px" viewBox="0 0 20 20">
  <path fill-rule="evenodd"
        d="M17.79422863405995 4.500000000000001
Q18.66025403784439 5.000000000000001 18.66025403784439 6.000000000000001
L18.66025403784439 14
Q18.66025403784439 15 17.79422863405995 15.5
L10.86602540378444 19.5
Q10 20 9.13397459621556 19.5
L2.2057713659400515 15.5
Q1.3397459621556127 15 1.3397459621556125 14
L1.3397459621556145 5.999999999999999
Q1.3397459621556145 4.999999999999999 2.205771365940053 4.499999999999998
L9.133974596215559 0.49999999999999994
Q9.999999999999998 0 10.866025403784437 0.5z
M16.23538290724796 5.6
Q16.92820323027551 6 16.92820323027551 6.8
L16.92820323027551 13.2
Q16.92820323027551 14 16.23538290724796 14.4
L10.69282032302755 17.6
Q10 18 9.30717967697245 17.6
L3.7646170927520415 14.4
Q3.0717967697244903 14 3.0717967697244903 13.2
L3.0717967697244912 6.799999999999999
Q3.0717967697244912 5.999999999999999 3.764617092752042 5.599999999999999
L9.307179676972448 2.4
Q9.999999999999998 2 10.692820323027549 2.4
z"></path>
  <circle cx="7" cy="10" r="1" />
  <circle cx="11" cy="8.2" r=".5" />
  <circle cx="14" cy="13" r=".5" />
  <circle cx="5" cy="12" r=".5" />
  <circle cx="6" cy="6" r=".5" />
  <circle cx="8" cy="12" r=".5" />
  <circle cx="12" cy="6" r=".5" />
  <circle cx="12" cy="12" r="1" />
  <circle cx="8.5" cy="6" r="1" />
  <circle cx="10" cy="14" r=".5" />
  <circle cx="14" cy="9" r=".5" />
</svg>
